<?xml version="1.0" encoding="UTF-8"?>
<svg width="22px" height="22px" viewBox="0 0 22 22" version="1.1" xmlns="http://www.w3.org/2000/svg" xmlns:xlink="http://www.w3.org/1999/xlink">
    <!-- Generator: Sketch 52.2 (67145) - http://www.bohemiancoding.com/sketch -->
    <title>correlation-none</title>
    <desc>Created with Sketch.</desc>
    <g id="Mobile" stroke="none" stroke-width="1" fill="none" fill-rule="evenodd">
        <g id="Dashboard" transform="translate(-18.000000, -614.000000)" fill="#303030" fill-rule="nonzero">
            <path d="M29,636 C22.9248678,636 18,631.075132 18,625 C18,618.924868 22.9248678,614 29,614 C35.0751322,614 40,618.924868 40,625 C40,631.075132 35.0751322,636 29,636 Z M31.9615385,624.576923 C32.8961742,624.576923 33.6538462,623.819251 33.6538462,622.884615 C33.6538462,621.94998 32.8961742,621.192308 31.9615385,621.192308 C31.0269027,621.192308 30.2692308,621.94998 30.2692308,622.884615 C30.2692308,623.819251 31.0269027,624.576923 31.9615385,624.576923 Z M25.6153846,624.576923 C26.5500203,624.576923 27.3076923,623.819251 27.3076923,622.884615 C27.3076923,621.94998 26.5500203,621.192308 25.6153846,621.192308 C24.6807489,621.192308 23.9230769,621.94998 23.9230769,622.884615 C23.9230769,623.819251 24.6807489,624.576923 25.6153846,624.576923 Z M24.5,629 C24.2238576,629 24,629.223858 24,629.5 C24,629.776142 24.2238576,630 24.5,630 L33.5,630 C33.7761424,630 34,629.776142 34,629.5 C34,629.223858 33.7761424,629 33.5,629 L24.5,629 Z" id="correlation-none"></path>
        </g>
    </g>
</svg>