<?xml version="1.0" encoding="UTF-8"?>
<svg width="22px" height="22px" viewBox="0 0 22 22" version="1.1" xmlns="http://www.w3.org/2000/svg" xmlns:xlink="http://www.w3.org/1999/xlink">
    <!-- Generator: Sketch 52.2 (67145) - http://www.bohemiancoding.com/sketch -->
    <title>correlation-na</title>
    <desc>Created with Sketch.</desc>
    <g id="Mobile" stroke="none" stroke-width="1" fill="none" fill-rule="evenodd">
        <g id="Dashboard" transform="translate(-90.000000, -614.000000)" fill="#D48D19" fill-rule="nonzero">
            <path d="M101,636 C94.9248678,636 90,631.075132 90,625 C90,618.924868 94.9248678,614 101,614 C107.075132,614 112,618.924868 112,625 C112,631.075132 107.075132,636 101,636 Z M98.272,620.56 L98.648,621.16 C98.722667,621.282667 98.826666,621.344 98.96,621.344 C99.0240003,621.344 99.1053328,621.304 99.204,621.224 C99.3026672,621.144 99.4319992,621.056 99.592,620.96 C99.7520008,620.864 99.9479988,620.776 100.18,620.696 C100.412001,620.616 100.690665,620.576 101.016,620.576 C101.256001,620.576 101.481332,620.610666 101.692,620.68 C101.902668,620.749334 102.085333,620.849333 102.24,620.98 C102.394667,621.110667 102.517333,621.269332 102.608,621.456 C102.698667,621.642668 102.744,621.850666 102.744,622.08 C102.744,622.400002 102.684001,622.677332 102.564,622.912 C102.443999,623.146668 102.292001,623.355999 102.108,623.54 C101.923999,623.724001 101.726668,623.891999 101.516,624.044 C101.305332,624.196001 101.108001,624.347999 100.924,624.5 C100.739999,624.652001 100.588001,624.814666 100.468,624.988 C100.347999,625.161334 100.288,625.359999 100.288,625.584 L100.288,625.672 L100.384,627 L101.36,627 L101.504,625.776 C101.525333,625.599999 101.603999,625.440001 101.74,625.296 C101.876001,625.151999 102.038666,625.008001 102.228,624.864 C102.417334,624.719999 102.621332,624.566667 102.84,624.404 C103.058668,624.241333 103.259999,624.049334 103.444,623.828 C103.628001,623.606666 103.779999,623.349335 103.9,623.056 C104.020001,622.762665 104.08,622.413335 104.08,622.008 C104.08,621.607998 104.005334,621.248002 103.856,620.928 C103.706666,620.607998 103.501335,620.336001 103.24,620.112 C102.978665,619.887999 102.668002,619.714667 102.308,619.592 C101.947998,619.469333 101.557335,619.408 101.136,619.408 C100.815998,619.408 100.518668,619.438666 100.244,619.5 C99.969332,619.561334 99.7133345,619.645333 99.476,619.752 C99.2386655,619.858667 99.020001,619.981333 98.82,620.12 C98.619999,620.258667 98.4373342,620.405333 98.272,620.56 Z M99.84,630.12 C99.84,630.264001 99.8653331,630.395999 99.916,630.516 C99.9666669,630.636001 100.036,630.741333 100.124,630.832 C100.212,630.922667 100.317333,630.993333 100.44,631.044 C100.562667,631.094667 100.693333,631.12 100.832,631.12 C100.970667,631.12 101.101333,631.094667 101.224,631.044 C101.346667,630.993333 101.453333,630.922667 101.544,630.832 C101.634667,630.741333 101.705333,630.636001 101.756,630.516 C101.806667,630.395999 101.832,630.264001 101.832,630.12 C101.832,629.981333 101.806667,629.850667 101.756,629.728 C101.705333,629.605333 101.634667,629.498667 101.544,629.408 C101.453333,629.317333 101.346667,629.245334 101.224,629.192 C101.101333,629.138666 100.970667,629.112 100.832,629.112 C100.693333,629.112 100.562667,629.138666 100.44,629.192 C100.317333,629.245334 100.212,629.317333 100.124,629.408 C100.036,629.498667 99.9666669,629.605333 99.916,629.728 C99.8653331,629.850667 99.84,629.981333 99.84,630.12 Z" id="correlation-na"></path>
        </g>
    </g>
</svg>