<?xml version="1.0" encoding="UTF-8"?>
<svg width="52px" height="51px" viewBox="0 0 52 51" version="1.1" xmlns="http://www.w3.org/2000/svg" xmlns:xlink="http://www.w3.org/1999/xlink">
    <!-- Generator: Sketch 52.2 (67145) - http://www.bohemiancoding.com/sketch -->
    <title>Rating-5</title>
    <desc>Created with Sketch.</desc>
    <g id="Mobile" stroke="none" stroke-width="1" fill="none" fill-rule="evenodd">
        <g id="New-Sleep-Log" transform="translate(-294.000000, -640.000000)" fill="#9490F8" fill-rule="nonzero">
            <path d="M320,691 C305.640597,691 294,679.583261 294,665.5 C294,651.416739 305.640597,640 320,640 C334.359403,640 346,651.416739 346,665.5 C346,679.583261 334.359403,691 320,691 Z M328,664.519231 C330.209139,664.519231 332,662.762809 332,660.596154 C332,658.429498 330.209139,656.673077 328,656.673077 C325.790861,656.673077 324,658.429498 324,660.596154 C324,662.762809 325.790861,664.519231 328,664.519231 Z M313,664.519231 C315.209139,664.519231 317,662.762809 317,660.596154 C317,658.429498 315.209139,656.673077 313,656.673077 C310.790861,656.673077 309,658.429498 309,660.596154 C309,662.762809 310.790861,664.519231 313,664.519231 Z M308,669.912646 C308,676.412612 313.372583,681.681877 320,681.681877 C326.627417,681.681877 332,676.412612 332,669.912646 C332,663.412679 327.740894,668.142383 320,668.142383 C312.259106,668.142383 308,663.412679 308,669.912646 Z" id="Rating-5"></path>
        </g>
    </g>
</svg>