<?xml version="1.0" encoding="UTF-8"?>
<svg width="453px" height="111px" viewBox="0 0 453 111" version="1.1" xmlns="http://www.w3.org/2000/svg" xmlns:xlink="http://www.w3.org/1999/xlink">
    <!-- Generator: Sketch 52.2 (67145) - http://www.bohemiancoding.com/sketch -->
    <title>Group 3</title>
    <desc>Created with Sketch.</desc>
    <g id="logo" stroke="none" stroke-width="1" fill="none" fill-rule="evenodd">
        <g id="Mobile" transform="translate(-33.000000, -40.000000)">
            <g id="Group-3" transform="translate(33.000000, 45.000000)">
                <g id="sleepsheep-copy-4" fill-rule="nonzero">
                    <path d="M97.4206261,31.0876413 C98.5018835,32.6249511 99.4709213,34.2382773 100.31944,35.9153358 C110.940725,30.1131937 122.460401,30.1442255 126.418584,37 C130.4788,44.0325005 124.341799,54.3648401 113.5,60.6243557 C110.020987,62.6329645 106.365822,64.0402541 102.850955,64.7541209 C101.150131,70.4058103 98.1819151,75.5843089 94.1913168,79.9163545 C89.214833,94.6515355 79.0710494,103.5 65.5071963,103.5 C51.9512201,103.5 41.8110659,94.6617826 36.8314101,79.9410057 C32.8294433,75.6040654 29.853129,70.4166405 28.149045,64.754121 C24.6341785,64.0402541 20.9790126,62.6329645 17.5,60.6243557 C6.65820099,54.3648401 0.521199658,44.0325005 4.58141571,37 C8.53959885,30.1442257 20.0592746,30.1131937 30.6805585,35.9153352 C31.2952812,34.7003644 31.9733819,33.5186035 32.7118009,32.3747294 C31.9204404,30.7152807 31.5,28.8870253 31.5,27 C31.5,23.3286641 33.0970938,19.9284764 35.7694072,17.5911564 C35.5910599,16.745953 35.5,15.8786192 35.5,15 C35.5,8.09644063 41.0964406,2.5 48,2.5 C49.8367813,2.5 51.6148829,2.89867345 53.2324892,3.64493803 C55.4309943,-0.0766952677 59.4764361,-2.5 64,-2.5 C69.0300718,-2.5 73.4098164,0.484756904 75.3846728,4.82946355 C77.0991764,3.96656611 79.0137806,3.5 81,3.5 C87.9030899,3.5 93.4992388,9.0956795 93.4999999,15.9985916 C96.6009812,18.3246873 98.5,21.9972016 98.5,26 C98.5,27.778109 98.1267471,29.5046328 97.4206261,31.0876413 Z" id="Combined-Shape" stroke="#FFFFFF" stroke-width="5"></path>
                    <ellipse id="Oval-Copy-7" fill="#8E939D" transform="translate(24.500000, 48.500000) rotate(-330.000000) translate(-24.500000, -48.500000) " cx="24.5" cy="48.5" rx="20.5" ry="11.5"></ellipse>
                    <ellipse id="Oval-Copy-15" stroke="#FFFFFF" stroke-width="3" fill="#6F0273" transform="translate(24.500000, 48.500000) rotate(-330.000000) translate(-24.500000, -48.500000) " cx="24.5" cy="48.5" rx="14" ry="7"></ellipse>
                    <ellipse id="Oval" fill="#8E939D" transform="translate(106.500000, 48.500000) rotate(-30.000000) translate(-106.500000, -48.500000) " cx="106.5" cy="48.5" rx="20.5" ry="11.5"></ellipse>
                    <ellipse id="Oval-Copy-14" stroke="#FFFFFF" stroke-width="3" fill="#6F0273" transform="translate(106.500000, 48.500000) rotate(-30.000000) translate(-106.500000, -48.500000) " cx="106.5" cy="48.5" rx="14" ry="7"></ellipse>
                    <path d="M37.7107957,79.4185501 C31.1935219,72.4344995 27.5,63.2553792 27.5,53.5 C27.5,43.8302934 31.1285332,34.7251571 37.544698,27.7606104 C41.5093127,18.2035639 50.1557168,13.5 65.5071963,13.5 C80.8740089,13.5 89.5220941,18.2127788 93.4814684,27.7890444 C99.8816167,34.7503169 103.5,43.8437603 103.5,53.5 C103.5,63.2439162 99.8151975,72.4131054 93.3116154,79.3945107 C88.4863127,93.8754403 78.6597158,102.5 65.5071963,102.5 C52.362225,102.5 42.5391639,93.8853669 37.7107957,79.4185501 Z" id="Combined-Shape" stroke="#FFFFFF" stroke-width="3" fill="#8E939D"></path>
                    <g id="Group" transform="translate(42.000000, 53.000000)">
                        <circle id="Oval-Copy-12" fill="#F3F3F3" cx="10" cy="10" r="10"></circle>
                        <circle id="Oval-Copy-13" fill="#F3F3F3" cx="38" cy="10" r="10"></circle>
                        <circle id="Oval" fill="#000000" cx="10" cy="10" r="8"></circle>
                        <circle id="Oval" fill="#F3F3F3" cx="14.5" cy="6.5" r="1.5"></circle>
                        <circle id="Oval-Copy-8" fill="#000000" cx="38" cy="10" r="8"></circle>
                        <circle id="Oval-Copy-9" fill="#F3F3F3" cx="42.5" cy="6.5" r="1.5"></circle>
                    </g>
                    <path d="M44.504221,38.4891184 C44.336608,38.4963657 44.1685066,38.5 44,38.5 C37.6487254,38.5 32.5,33.3512746 32.5,27 C32.5,23.4173029 34.1525094,20.116041 36.8858493,17.9635998 C36.63088,17.0052971 36.5,16.0110758 36.5,15 C36.5,8.64872538 41.6487254,3.5 48,3.5 C50.0131182,3.5 51.9485231,4.01998258 53.6494474,4.98102379 C55.5346991,1.09337719 59.5116525,-1.5 64,-1.5 C69.0113261,-1.5 73.3212971,1.72050901 74.8793695,6.26205227 C76.68495,5.12503155 78.7939887,4.5 81,4.5 C87.3512746,4.5 92.5,9.64872538 92.5,16 C92.5,16.1685066 92.4963657,16.336608 92.4891184,16.504221 C95.5846028,18.6209652 97.5,22.1435782 97.5,26 C97.5,32.3512746 92.3512746,37.5 86,37.5 C84.4464416,37.5 82.9366446,37.1906857 81.5419632,36.6036831 C79.7473931,40.7148897 75.6520991,43.5 71,43.5 C67.7019385,43.5 64.6434116,42.0995229 62.5,39.7472186 C60.3565884,42.0995229 57.2980615,43.5 54,43.5 C50.1435782,43.5 46.6209652,41.5846028 44.504221,38.4891184 Z" id="Combined-Shape" stroke="#FFFFFF" stroke-width="3" fill="#0A0768"></path>
                    <g id="Group-2" transform="translate(56.000000, 87.000000)" stroke-linecap="round">
                        <path d="M10,8 C14.5173108,9.73058253 17.8506442,9.06391586 20,6" id="Path" stroke="#000000"></path>
                        <path d="M0,8 C4.51731082,9.73058253 7.85064416,9.06391586 10,6" id="Path-Copy" stroke="#000000" transform="translate(5.000000, 7.468493) scale(-1, 1) translate(-5.000000, -7.468493) "></path>
                        <path d="M10,2 L10,8" id="Line" stroke="#000000"></path>
                        <path d="M6.5,0.5 C7.65513884,1.16666667 8.81027768,1.5 9.96541652,1.5 C11.1205554,1.5 12.2756942,1.16666667 13.430833,0.5" id="Line-2" stroke="#6F0273"></path>
                    </g>
                </g>
                <text id="sleepsheep.io" font-family="Rancho-Regular, Rancho" font-size="80" font-weight="normal" fill="#FFFFFF">
                    <tspan x="146" y="72">sleepsheep.io</tspan>
                </text>
            </g>
        </g>
    </g>
</svg>