<?xml version="1.0" encoding="UTF-8"?>
<svg width="453px" height="111px" viewBox="0 0 453 111" version="1.1" xmlns="http://www.w3.org/2000/svg" xmlns:xlink="http://www.w3.org/1999/xlink">
    <!-- Generator: Sketch 52.2 (67145) - http://www.bohemiancoding.com/sketch -->
    <title>Group 3</title>
    <desc>Created with Sketch.</desc>
    <g id="logo" stroke="none" stroke-width="1" fill="none" fill-rule="evenodd">
        <g id="Mobile" transform="translate(-33.000000, -40.000000)">
            <g id="Group-3" transform="translate(33.000000, 45.000000)">
                <g id="sleepsheep-copy-4" fill-rule="nonzero">
                    <path d="M97.4206261,31.0876413 C98.5018835,32.6249511 99.4709213,34.2382773 100.31944,35.9153358 C110.940725,30.1131937 122.460401,30.1442255 126.418584,37 C130.4788,44.0325005 124.341799,54.3648401 113.5,60.6243557 C110.020987,62.6329645 106.365822,64.0402541 102.850955,64.7541209 C101.150131,70.4058103 98.1819151,75.5843089 94.1913168,79.9163545 C89.214833,94.6515355 79.0710494,103.5 65.5071963,103.5 C51.9512201,103.5 41.8110659,94.6617826 36.8314101,79.9410057 C32.8294433,75.6040654 29.853129,70.4166405 28.149045,64.754121 C24.6341785,64.0402541 20.9790126,62.6329645 17.5,60.6243557 C6.65820099,54.3648401 0.521199658,44.0325005 4.58141571,37 C8.53959885,30.1442257 20.0592746,30.1131937 30.6805585,35.9153352 C31.2952812,34.7003644 31.9733819,33.5186035 32.7118009,32.3747294 C31.9204404,30.7152807 31.5,28.8870253 31.5,27 C31.5,23.3286641 33.0970938,19.9284764 35.7694072,17.5911564 C35.5910599,16.745953 35.5,15.8786192 35.5,15 C35.5,8.09644063 41.0964406,2.5 48,2.5 C49.8367813,2.5 51.6148829,2.89867345 53.2324892,3.64493803 C55.4309943,-0.0766952677 59.4764361,-2.5 64,-2.5 C69.0300718,-2.5 73.4098164,0.484756904 75.3846728,4.82946355 C77.0991764,3.96656611 79.0137806,3.5 81,3.5 C87.9030899,3.5 93.4992388,9.0956795 93.4999999,15.9985916 C96.6009812,18.3246873 98.5,21.9972016 98.5,26 C98.5,27.778109 98.1267471,29.5046328 97.4206261,31.0876413 Z" id="Combined-Shape" stroke="#FFFFFF" stroke-width="5"></path>
                    <ellipse id="Oval-Copy-7" fill="#8E939D" transform="translate(24.500000, 48.500000) rotate(-330.000000) translate(-24.500000, -48.500000) " cx="24.5" cy="48.5" rx="20.5" ry="11.5"></ellipse>
                    <ellipse id="Oval-Copy-15" stroke="#FFFFFF" stroke-width="3" fill="#6F0273" transform="translate(24.500000, 48.500000) rotate(-330.000000) translate(-24.500000, -48.500000) " cx="24.5" cy="48.5" rx="14" ry="7"></ellipse>
                    <ellipse id="Oval" fill="#8E939D" transform="translate(106.500000, 48.500000) rotate(-30.000000) translate(-106.500000, -48.500000) " cx="106.5" cy="48.5" rx="20.5" ry="11.5"></ellipse>
                    <ellipse id="Oval-Copy-14" stroke="#FFFFFF" stroke-width="3" fill="#6F0273" transform="translate(106.500000, 48.500000) rotate(-30.000000) translate(-106.500000, -48.500000) " cx="106.5" cy="48.5" rx="14" ry="7"></ellipse>
                    <path d="M37.7107957,79.4185501 C31.1935219,72.4344995 27.5,63.2553792 27.5,53.5 C27.5,43.8302934 31.1285332,34.7251571 37.544698,27.7606104 C41.5093127,18.2035639 50.1557168,13.5 65.5071963,13.5 C80.8740089,13.5 89.5220941,18.2127788 93.4814684,27.7890444 C99.8816167,34.7503169 103.5,43.8437603 103.5,53.5 C103.5,63.2439162 99.8151975,72.4131054 93.3116154,79.3945107 C88.4863127,93.8754403 78.6597158,102.5 65.5071963,102.5 C52.362225,102.5 42.5391639,93.8853669 37.7107957,79.4185501 Z" id="Combined-Shape" stroke="#FFFFFF" stroke-width="3" fill="#8E939D"></path>
                    <g id="Group" transform="translate(42.000000, 53.000000)">
                        <circle id="Oval-Copy-12" fill="#F3F3F3" cx="10" cy="10" r="10"></circle>
                        <circle id="Oval-Copy-13" fill="#F3F3F3" cx="38" cy="10" r="10"></circle>
                        <circle id="Oval" fill="#000000" cx="10" cy="10" r="8"></circle>
                        <circle id="Oval" fill="#F3F3F3" cx="14.5" cy="6.5" r="1.5"></circle>
                        <circle id="Oval-Copy-8" fill="#000000" cx="38" cy="10" r="8"></circle>
                        <circle id="Oval-Copy-9" fill="#F3F3F3" cx="42.5" cy="6.5" r="1.5"></circle>
                    </g>
                    <path d="M44.504221,38.4891184 C44.336608,38.4963657 44.1685066,38.5 44,38.5 C37.6487254,38.5 32.5,33.3512746 32.5,27 C32.5,23.4173029 34.1525094,20.116041 36.8858493,17.9635998 C36.63088,17.0052971 36.5,16.0110758 36.5,15 C36.5,8.64872538 41.6487254,3.5 48,3.5 C50.0131182,3.5 51.9485231,4.01998258 53.6494474,4.98102379 C55.5346991,1.09337719 59.5116525,-1.5 64,-1.5 C69.0113261,-1.5 73.3212971,1.72050901 74.8793695,6.26205227 C76.68495,5.12503155 78.7939887,4.5 81,4.5 C87.3512746,4.5 92.5,9.64872538 92.5,16 C92.5,16.1685066 92.4963657,16.336608 92.4891184,16.504221 C95.5846028,18.6209652 97.5,22.1435782 97.5,26 C97.5,32.3512746 92.3512746,37.5 86,37.5 C84.4464416,37.5 82.9366446,37.1906857 81.5419632,36.6036831 C79.7473931,40.7148897 75.6520991,43.5 71,43.5 C67.7019385,43.5 64.6434116,42.0995229 62.5,39.7472186 C60.3565884,42.0995229 57.2980615,43.5 54,43.5 C50.1435782,43.5 46.6209652,41.5846028 44.504221,38.4891184 Z" id="Combined-Shape" stroke="#FFFFFF" stroke-width="3" fill="#0A0768"></path>
                    <g id="Group-2" transform="translate(56.000000, 87.000000)" stroke-linecap="round">
                        <path d="M10,8 C14.5173108,9.73058253 17.8506442,9.06391586 20,6" id="Path" stroke="#000000"></path>
                        <path d="M0,8 C4.51731082,9.73058253 7.85064416,9.06391586 10,6" id="Path-Copy" stroke="#000000" transform="translate(5.000000, 7.468493) scale(-1, 1) translate(-5.000000, -7.468493) "></path>
                        <path d="M10,2 L10,8" id="Line" stroke="#000000"></path>
                        <path d="M6.5,0.5 C7.65513884,1.16666667 8.81027768,1.5 9.96541652,1.5 C11.1205554,1.5 12.2756942,1.16666667 13.430833,0.5" id="Line-2" stroke="#6F0273"></path>
                    </g>
                </g>
                <path d="M160.84375,57.15625 C161.989589,57.5729187 163.083328,57.9635398 164.125,58.328125 C165.166672,58.6927102 166.078121,59.1354141 166.859375,59.65625 C167.640629,60.1770859 168.265623,60.789059 168.734375,61.4921875 C169.203127,62.195316 169.4375,63.0677031 169.4375,64.109375 C169.4375,65.3593812 169.164065,66.5312445 168.617188,67.625 C168.07031,68.7187555 167.276047,69.6822875 166.234375,70.515625 C165.192703,71.3489625 163.929695,72.0130184 162.445312,72.5078125 C160.96093,73.0026066 159.307301,73.25 157.484375,73.25 C155.453115,73.25 153.812506,73.0546895 152.5625,72.6640625 C151.312494,72.2734355 150.348962,71.8177109 149.671875,71.296875 C148.994788,70.7760391 148.552084,70.2552109 148.34375,69.734375 C148.135416,69.2135391 148.03125,68.7968766 148.03125,68.484375 C148.03125,67.8593719 148.161457,67.1692746 148.421875,66.4140625 C148.682293,65.6588504 149.17708,64.8385461 149.90625,63.953125 C150.218752,63.5885398 150.55729,63.2500016 150.921875,62.9375 C151.651045,62.3124969 152.380205,61.9218758 153.109375,61.765625 C153.005208,62.9635477 153.148436,63.9401004 153.539062,64.6953125 C153.929689,65.4505246 154.450518,66.0364563 155.101562,66.453125 C155.752607,66.8697937 156.481767,67.1562492 157.289062,67.3125 C158.096358,67.4687508 158.86458,67.546875 159.59375,67.546875 C160.32292,67.546875 161.0651,67.4427094 161.820312,67.234375 C162.575525,67.0260406 163.265622,66.7526059 163.890625,66.4140625 C164.515628,66.0755191 165.023436,65.684898 165.414062,65.2421875 C165.804689,64.799477 166,64.3177109 166,63.796875 C166,63.2239555 165.765627,62.7552102 165.296875,62.390625 C164.828123,62.0260398 164.242191,61.7265637 163.539062,61.4921875 C162.835934,61.2578113 162.080733,61.0755215 161.273438,60.9453125 C160.466142,60.8151035 159.69792,60.6718758 158.96875,60.515625 C158.23958,60.3593742 157.263027,60.1380223 156.039062,59.8515625 C154.815098,59.5651027 153.617193,59.1093781 152.445312,58.484375 C151.273432,57.8593719 150.257817,57.0260469 149.398438,55.984375 C148.539058,54.9427031 148.109375,53.5625086 148.109375,51.84375 C148.109375,49.8645734 148.617182,48.1328199 149.632812,46.6484375 C150.648443,45.1640551 151.89843,43.9140676 153.382812,42.8984375 C154.867195,41.8828074 156.4427,41.1145859 158.109375,40.59375 C159.77605,40.0729141 161.26041,39.8125 162.5625,39.8125 C163.239587,39.8125 163.968746,39.9036449 164.75,40.0859375 C165.531254,40.2682301 166.260413,40.580727 166.9375,41.0234375 C167.614587,41.466148 168.174477,42.0520797 168.617188,42.78125 C169.059898,43.5104203 169.28125,44.4479109 169.28125,45.59375 C169.28125,46.7395891 169.190105,47.664059 169.007812,48.3671875 C168.82552,49.070316 168.565106,49.6171855 168.226562,50.0078125 C167.888019,50.3984395 167.484377,50.6458328 167.015625,50.75 C166.546873,50.8541672 166.000003,50.90625 165.375,50.90625 C164.958331,50.90625 164.56771,50.8541672 164.203125,50.75 C163.890623,50.6458328 163.552085,50.5416672 163.1875,50.4375 C162.822915,50.3333328 162.484377,50.151043 162.171875,49.890625 C162.692711,49.2656219 163.096353,48.6666695 163.382812,48.09375 C163.669272,47.5208305 163.8125,46.8177125 163.8125,45.984375 C163.8125,45.2552047 163.617189,44.6041695 163.226562,44.03125 C162.835936,43.4583305 162.197921,43.171875 161.3125,43.171875 C160.374995,43.171875 159.476567,43.3541648 158.617188,43.71875 C157.757808,44.0833352 157.002607,44.5781219 156.351562,45.203125 C155.700518,45.8281281 155.179689,46.5442668 154.789062,47.3515625 C154.398436,48.1588582 154.203125,49.0312453 154.203125,49.96875 C154.203125,51.375007 154.736974,52.7031188 155.804688,53.953125 C156.872401,55.2031312 158.552072,56.2708289 160.84375,57.15625 Z M184.125,21.375 C184.020833,23.2500094 183.838543,25.4114461 183.578125,27.859375 C183.317707,30.3073039 183.044272,32.9374859 182.757812,35.75 C182.471353,38.5625141 182.184897,41.505193 181.898438,44.578125 C181.611978,47.651057 181.364584,50.7499844 181.15625,53.875 C180.947916,57.0000156 180.856771,59.5390527 180.882812,61.4921875 C180.908854,63.4453223 181.026041,65.0468688 181.234375,66.296875 C181.442709,67.5468812 181.729165,68.5364547 182.09375,69.265625 C182.458335,69.9947953 182.92708,70.6979133 183.5,71.375 C182.822913,71.7916687 182.19792,72.1041656 181.625,72.3125 C181.05208,72.5208344 180.557294,72.6770828 180.140625,72.78125 C179.619789,72.9375008 179.151044,73.015625 178.734375,73.015625 C177.953121,73.015625 177.276045,72.6380246 176.703125,71.8828125 C176.130205,71.1276004 175.674481,70.1510477 175.335938,68.953125 C174.997394,67.7552023 174.73698,66.4140699 174.554688,64.9296875 C174.372395,63.4453051 174.28125,61.9739656 174.28125,60.515625 C174.28125,58.9531172 174.333333,57.1432395 174.4375,55.0859375 C174.541667,53.0286355 174.658854,50.8411574 174.789062,48.5234375 C174.919271,46.2057176 175.062499,43.7838668 175.21875,41.2578125 C175.375001,38.7317582 175.505208,36.2187625 175.609375,33.71875 C175.713542,31.791657 175.817708,30.0468828 175.921875,28.484375 C176.026042,27.1302016 176.104166,25.8932348 176.15625,24.7734375 C176.208334,23.6536402 176.182292,22.9895844 176.078125,22.78125 C176.390627,22.3645813 176.781248,22.0520844 177.25,21.84375 C177.718752,21.6354156 178.161456,21.4531258 178.578125,21.296875 C179.098961,21.1406242 179.619789,21.0104172 180.140625,20.90625 L181.625,20.90625 C182.041669,20.90625 182.484373,20.9453121 182.953125,21.0234375 C183.421877,21.1015629 183.812498,21.2187492 184.125,21.375 Z M198.265625,72.859375 C194.619773,72.859375 191.807302,71.6354289 189.828125,69.1875 C187.848948,66.7395711 186.859375,63.5364781 186.859375,59.578125 C186.859375,56.8176945 187.263017,54.2265746 188.070312,51.8046875 C188.877608,49.3828004 189.958327,47.2864672 191.3125,45.515625 C192.666673,43.7447828 194.242179,42.3515676 196.039062,41.3359375 C197.835946,40.3203074 199.723948,39.8125 201.703125,39.8125 C203.630218,39.8125 205.270827,40.5025973 206.625,41.8828125 C207.979173,43.2630277 208.65625,45.2291539 208.65625,47.78125 C208.65625,49.447925 208.29167,51.1015543 207.5625,52.7421875 C206.83333,54.3828207 205.882818,55.8411395 204.710938,57.1171875 C203.539057,58.3932355 202.250007,59.4218711 200.84375,60.203125 C199.437493,60.9843789 198.08334,61.375 196.78125,61.375 C195.947913,61.375 195.244795,61.2708344 194.671875,61.0625 C194.098955,60.8541656 193.578127,60.5416687 193.109375,60.125 C193.265626,63.0937648 193.916661,65.1640566 195.0625,66.3359375 C196.208339,67.5078184 197.692699,68.09375 199.515625,68.09375 C200.765631,68.09375 201.872391,67.8333359 202.835938,67.3125 C203.799484,66.7916641 204.619788,66.1927117 205.296875,65.515625 C205.973962,64.8385383 206.520831,64.148441 206.9375,63.4453125 C207.354169,62.742184 207.640624,62.2083352 207.796875,61.84375 C207.953126,61.5312484 208.226561,61.375 208.617188,61.375 C209.007814,61.375 209.203125,61.6874969 209.203125,62.3125 C209.203125,62.8854195 209.007814,63.7578066 208.617188,64.9296875 C208.226561,66.1015684 207.588546,67.2734316 206.703125,68.4453125 C205.817704,69.6171934 204.684903,70.6458289 203.304688,71.53125 C201.924472,72.4166711 200.244802,72.859375 198.265625,72.859375 Z M201.859375,43.171875 C201.546873,43.171875 200.960942,43.4973926 200.101562,44.1484375 C199.242183,44.7994824 198.330734,45.7499938 197.367188,47 C196.403641,48.2500062 195.518233,49.7473871 194.710938,51.4921875 C193.903642,53.2369879 193.395834,55.2031141 193.1875,57.390625 C196.312516,56.6614547 198.786449,55.5156328 200.609375,53.953125 C202.432301,52.3906172 203.34375,50.0989734 203.34375,47.078125 C203.34375,45.5677008 203.16146,44.5390652 202.796875,43.9921875 C202.43229,43.4453098 202.119793,43.171875 201.859375,43.171875 Z M224.203125,72.859375 C220.557273,72.859375 217.744802,71.6354289 215.765625,69.1875 C213.786448,66.7395711 212.796875,63.5364781 212.796875,59.578125 C212.796875,56.8176945 213.200517,54.2265746 214.007812,51.8046875 C214.815108,49.3828004 215.895827,47.2864672 217.25,45.515625 C218.604173,43.7447828 220.179679,42.3515676 221.976562,41.3359375 C223.773446,40.3203074 225.661448,39.8125 227.640625,39.8125 C229.567718,39.8125 231.208327,40.5025973 232.5625,41.8828125 C233.916673,43.2630277 234.59375,45.2291539 234.59375,47.78125 C234.59375,49.447925 234.22917,51.1015543 233.5,52.7421875 C232.77083,54.3828207 231.820318,55.8411395 230.648438,57.1171875 C229.476557,58.3932355 228.187507,59.4218711 226.78125,60.203125 C225.374993,60.9843789 224.02084,61.375 222.71875,61.375 C221.885413,61.375 221.182295,61.2708344 220.609375,61.0625 C220.036455,60.8541656 219.515627,60.5416687 219.046875,60.125 C219.203126,63.0937648 219.854161,65.1640566 221,66.3359375 C222.145839,67.5078184 223.630199,68.09375 225.453125,68.09375 C226.703131,68.09375 227.809891,67.8333359 228.773438,67.3125 C229.736984,66.7916641 230.557288,66.1927117 231.234375,65.515625 C231.911462,64.8385383 232.458331,64.148441 232.875,63.4453125 C233.291669,62.742184 233.578124,62.2083352 233.734375,61.84375 C233.890626,61.5312484 234.164061,61.375 234.554688,61.375 C234.945314,61.375 235.140625,61.6874969 235.140625,62.3125 C235.140625,62.8854195 234.945314,63.7578066 234.554688,64.9296875 C234.164061,66.1015684 233.526046,67.2734316 232.640625,68.4453125 C231.755204,69.6171934 230.622403,70.6458289 229.242188,71.53125 C227.861972,72.4166711 226.182302,72.859375 224.203125,72.859375 Z M227.796875,43.171875 C227.484373,43.171875 226.898442,43.4973926 226.039062,44.1484375 C225.179683,44.7994824 224.268234,45.7499938 223.304688,47 C222.341141,48.2500062 221.455733,49.7473871 220.648438,51.4921875 C219.841142,53.2369879 219.333334,55.2031141 219.125,57.390625 C222.250016,56.6614547 224.723949,55.5156328 226.546875,53.953125 C228.369801,52.3906172 229.28125,50.0989734 229.28125,47.078125 C229.28125,45.5677008 229.09896,44.5390652 228.734375,43.9921875 C228.36979,43.4453098 228.057293,43.171875 227.796875,43.171875 Z M254.90625,41.0625 C256.364591,41.0625 257.718744,41.4791625 258.96875,42.3125 C260.218756,43.1458375 261.286454,44.2395766 262.171875,45.59375 C263.057296,46.9479234 263.760414,48.4973871 264.28125,50.2421875 C264.802086,51.9869879 265.0625,53.7968656 265.0625,55.671875 C265.0625,57.5468844 264.854169,59.5260313 264.4375,61.609375 C264.020831,63.6927187 263.369796,65.6197828 262.484375,67.390625 C261.598954,69.1614672 260.453132,70.6328066 259.046875,71.8046875 C257.640618,72.9765684 255.921885,73.5625 253.890625,73.5625 C252.276034,73.5625 250.752611,72.9765684 249.320312,71.8046875 C247.888014,70.6328066 246.781254,69.1614672 246,67.390625 C245.895833,69.2135508 245.66146,71.0755113 245.296875,72.9765625 C244.93229,74.8776137 244.75,77.1562367 244.75,79.8125 C244.75,80.5937539 244.776041,81.4791617 244.828125,82.46875 C244.880209,83.4583383 244.958333,84.4479117 245.0625,85.4375 C245.166667,86.4270883 245.322916,87.3385375 245.53125,88.171875 C245.739584,89.0052125 245.973957,89.6562477 246.234375,90.125 C245.348954,90.6458359 244.554691,91.036457 243.851562,91.296875 C243.148434,91.557293 242.536461,91.7395828 242.015625,91.84375 C241.442705,92.0000008 240.895836,92.078125 240.375,92.078125 C239.697913,92.078125 239.255209,91.7916695 239.046875,91.21875 C238.838541,90.6458305 238.734375,89.6302156 238.734375,88.171875 C238.734375,87.2343703 238.773437,85.8932379 238.851562,84.1484375 C238.929688,82.4036371 239.033854,80.4114695 239.164062,78.171875 C239.294271,75.9322805 239.424479,73.5755332 239.554688,71.1015625 C239.684896,68.6275918 239.815104,66.1927203 239.945312,63.796875 C240.075521,61.4010297 240.179687,59.1744895 240.257812,57.1171875 C240.335938,55.0598855 240.375,53.328132 240.375,51.921875 C240.375,50.2031164 240.348959,48.861984 240.296875,47.8984375 C240.244791,46.934891 240.179688,46.2057316 240.101562,45.7109375 C240.023437,45.2161434 239.932292,44.8645844 239.828125,44.65625 C239.723958,44.4479156 239.593751,44.213543 239.4375,43.953125 C239.906252,43.5885398 240.466143,43.2630223 241.117188,42.9765625 C241.768232,42.6901027 242.419268,42.4817715 243.070312,42.3515625 C243.721357,42.2213535 244.32031,42.1822914 244.867188,42.234375 C245.414065,42.2864586 245.843748,42.4166656 246.15625,42.625 C246.416668,42.885418 246.611979,43.2760391 246.742188,43.796875 C246.872396,44.3177109 246.989583,45.0989531 247.09375,46.140625 C248.083338,44.7864516 249.216139,43.6015676 250.492188,42.5859375 C251.768236,41.5703074 253.239575,41.0625 254.90625,41.0625 Z M251.859375,68.953125 C252.79688,68.953125 253.695308,68.5104211 254.554688,67.625 C255.414067,66.7395789 256.169268,65.6067777 256.820312,64.2265625 C257.471357,62.8463473 257.992186,61.3099043 258.382812,59.6171875 C258.773439,57.9244707 258.96875,56.2448 258.96875,54.578125 C258.96875,52.7551992 258.799481,51.2578184 258.460938,50.0859375 C258.122394,48.9140566 257.705732,47.976566 257.210938,47.2734375 C256.716143,46.570309 256.195315,46.0755223 255.648438,45.7890625 C255.10156,45.5026027 254.619794,45.359375 254.203125,45.359375 C253.213537,45.359375 252.276046,45.7630168 251.390625,46.5703125 C250.505204,47.3776082 249.723962,48.4192645 249.046875,49.6953125 C248.369788,50.9713605 247.835939,52.3906172 247.445312,53.953125 C247.054686,55.5156328 246.859375,57.0781172 246.859375,58.640625 C246.859375,60.0989656 247.002603,61.4531188 247.289062,62.703125 C247.575522,63.9531312 247.953123,65.0468703 248.421875,65.984375 C248.890627,66.9218797 249.424476,67.6510391 250.023438,68.171875 C250.622399,68.6927109 251.234372,68.953125 251.859375,68.953125 Z M281.9375,57.15625 C283.083339,57.5729187 284.177078,57.9635398 285.21875,58.328125 C286.260422,58.6927102 287.171871,59.1354141 287.953125,59.65625 C288.734379,60.1770859 289.359373,60.789059 289.828125,61.4921875 C290.296877,62.195316 290.53125,63.0677031 290.53125,64.109375 C290.53125,65.3593812 290.257815,66.5312445 289.710938,67.625 C289.16406,68.7187555 288.369797,69.6822875 287.328125,70.515625 C286.286453,71.3489625 285.023445,72.0130184 283.539062,72.5078125 C282.05468,73.0026066 280.401051,73.25 278.578125,73.25 C276.546865,73.25 274.906256,73.0546895 273.65625,72.6640625 C272.406244,72.2734355 271.442712,71.8177109 270.765625,71.296875 C270.088538,70.7760391 269.645834,70.2552109 269.4375,69.734375 C269.229166,69.2135391 269.125,68.7968766 269.125,68.484375 C269.125,67.8593719 269.255207,67.1692746 269.515625,66.4140625 C269.776043,65.6588504 270.27083,64.8385461 271,63.953125 C271.312502,63.5885398 271.65104,63.2500016 272.015625,62.9375 C272.744795,62.3124969 273.473955,61.9218758 274.203125,61.765625 C274.098958,62.9635477 274.242186,63.9401004 274.632812,64.6953125 C275.023439,65.4505246 275.544268,66.0364563 276.195312,66.453125 C276.846357,66.8697937 277.575517,67.1562492 278.382812,67.3125 C279.190108,67.4687508 279.95833,67.546875 280.6875,67.546875 C281.41667,67.546875 282.15885,67.4427094 282.914062,67.234375 C283.669275,67.0260406 284.359372,66.7526059 284.984375,66.4140625 C285.609378,66.0755191 286.117186,65.684898 286.507812,65.2421875 C286.898439,64.799477 287.09375,64.3177109 287.09375,63.796875 C287.09375,63.2239555 286.859377,62.7552102 286.390625,62.390625 C285.921873,62.0260398 285.335941,61.7265637 284.632812,61.4921875 C283.929684,61.2578113 283.174483,61.0755215 282.367188,60.9453125 C281.559892,60.8151035 280.79167,60.6718758 280.0625,60.515625 C279.33333,60.3593742 278.356777,60.1380223 277.132812,59.8515625 C275.908848,59.5651027 274.710943,59.1093781 273.539062,58.484375 C272.367182,57.8593719 271.351567,57.0260469 270.492188,55.984375 C269.632808,54.9427031 269.203125,53.5625086 269.203125,51.84375 C269.203125,49.8645734 269.710932,48.1328199 270.726562,46.6484375 C271.742193,45.1640551 272.99218,43.9140676 274.476562,42.8984375 C275.960945,41.8828074 277.53645,41.1145859 279.203125,40.59375 C280.8698,40.0729141 282.35416,39.8125 283.65625,39.8125 C284.333337,39.8125 285.062496,39.9036449 285.84375,40.0859375 C286.625004,40.2682301 287.354163,40.580727 288.03125,41.0234375 C288.708337,41.466148 289.268227,42.0520797 289.710938,42.78125 C290.153648,43.5104203 290.375,44.4479109 290.375,45.59375 C290.375,46.7395891 290.283855,47.664059 290.101562,48.3671875 C289.91927,49.070316 289.658856,49.6171855 289.320312,50.0078125 C288.981769,50.3984395 288.578127,50.6458328 288.109375,50.75 C287.640623,50.8541672 287.093753,50.90625 286.46875,50.90625 C286.052081,50.90625 285.66146,50.8541672 285.296875,50.75 C284.984373,50.6458328 284.645835,50.5416672 284.28125,50.4375 C283.916665,50.3333328 283.578127,50.151043 283.265625,49.890625 C283.786461,49.2656219 284.190103,48.6666695 284.476562,48.09375 C284.763022,47.5208305 284.90625,46.8177125 284.90625,45.984375 C284.90625,45.2552047 284.710939,44.6041695 284.320312,44.03125 C283.929686,43.4583305 283.291671,43.171875 282.40625,43.171875 C281.468745,43.171875 280.570317,43.3541648 279.710938,43.71875 C278.851558,44.0833352 278.096357,44.5781219 277.445312,45.203125 C276.794268,45.8281281 276.273439,46.5442668 275.882812,47.3515625 C275.492186,48.1588582 275.296875,49.0312453 275.296875,49.96875 C275.296875,51.375007 275.830724,52.7031188 276.898438,53.953125 C277.966151,55.2031312 279.645822,56.2708289 281.9375,57.15625 Z M301.625,59.734375 C302.250003,57.8593656 302.783852,56.2708398 303.226562,54.96875 C303.669273,53.6666602 304.046873,52.6250039 304.359375,51.84375 C304.72396,50.9062453 305.036457,50.1510445 305.296875,49.578125 C305.609377,48.7447875 305.960936,47.9114625 306.351562,47.078125 C306.742189,46.2447875 307.145831,45.476566 307.5625,44.7734375 C307.979169,44.070309 308.36979,43.4843773 308.734375,43.015625 C309.09896,42.5468727 309.411457,42.2343758 309.671875,42.078125 C309.880209,41.9739578 310.361975,41.9739578 311.117188,42.078125 C311.8724,42.1822922 312.705725,42.4296855 313.617188,42.8203125 C314.52865,43.2109395 315.388017,43.7447883 316.195312,44.421875 C317.002608,45.0989617 317.562498,45.9322867 317.875,46.921875 C318.187502,48.1197977 318.291667,49.682282 318.1875,51.609375 C318.083333,53.536468 317.940105,55.5156148 317.757812,57.546875 C317.57552,59.5781352 317.445313,61.5051992 317.367188,63.328125 C317.289062,65.1510508 317.406248,66.5312453 317.71875,67.46875 L318.34375,69.03125 C318.552084,69.4479187 318.799478,69.877602 319.085938,70.3203125 C319.372397,70.763023 319.697915,71.1406234 320.0625,71.453125 C318.552076,72.0260445 317.34115,72.4557277 316.429688,72.7421875 C315.518225,73.0286473 314.828127,73.2239578 314.359375,73.328125 C313.786455,73.4843758 313.395834,73.5104172 313.1875,73.40625 C312.770831,73.2499992 312.38021,72.8593781 312.015625,72.234375 C311.65104,71.6093719 311.338543,70.6197984 311.078125,69.265625 C310.973958,68.8489563 310.947916,68.1197969 311,67.078125 C311.052084,66.0364531 311.130208,64.8645898 311.234375,63.5625 C311.338542,62.2604102 311.442708,60.8932363 311.546875,59.4609375 C311.651042,58.0286387 311.755208,56.6875062 311.859375,55.4375 C311.963542,54.1874938 312.028646,53.0937547 312.054688,52.15625 C312.080729,51.2187453 312.067709,50.5937516 312.015625,50.28125 C311.755207,49.3958289 311.390627,48.7578145 310.921875,48.3671875 C310.453123,47.9765605 310.088543,47.9374984 309.828125,48.25 C309.203122,49.0312539 308.513025,50.3723863 307.757812,52.2734375 C307.0026,54.1744887 306.286462,56.2317598 305.609375,58.4453125 C304.932288,60.6588652 304.346357,62.8593641 303.851562,65.046875 C303.356768,67.2343859 303.057292,69.031243 302.953125,70.4375 C302.953125,70.7500016 302.705732,71.0755191 302.210938,71.4140625 C301.716143,71.7526059 301.169274,72.052082 300.570312,72.3125 C299.971351,72.572918 299.38542,72.7421871 298.8125,72.8203125 C298.23958,72.8984379 297.848959,72.807293 297.640625,72.546875 C297.484374,72.3906242 297.158857,72.0260445 296.664062,71.453125 C296.169268,70.8802055 295.895834,69.9166734 295.84375,68.5625 C295.739583,67.2604102 295.739583,65.4765738 295.84375,63.2109375 C295.947917,60.9453012 295.973959,58.5625125 295.921875,56.0625 L295.921875,50.28125 C295.921875,47.9374883 295.908854,44.6953332 295.882812,40.5546875 C295.856771,36.4140418 295.817709,30.9323258 295.765625,24.109375 C296.338545,23.7968734 296.859373,23.5234387 297.328125,23.2890625 C297.796877,23.0546863 298.239581,22.8593758 298.65625,22.703125 C299.125002,22.4947906 299.567706,22.3385422 299.984375,22.234375 C302.22397,21.6614555 303.395833,21.6614555 303.5,22.234375 C303.552084,22.7552109 303.500001,24.4218609 303.34375,27.234375 C303.291666,28.4322977 303.213542,29.9426992 303.109375,31.765625 C303.005208,33.5885508 302.888021,35.8020703 302.757812,38.40625 C302.627604,41.0104297 302.471355,44.0702949 302.289062,47.5859375 C302.10677,51.1015801 301.885418,55.1510187 301.625,59.734375 Z M334.28125,72.859375 C330.635398,72.859375 327.822927,71.6354289 325.84375,69.1875 C323.864573,66.7395711 322.875,63.5364781 322.875,59.578125 C322.875,56.8176945 323.278642,54.2265746 324.085938,51.8046875 C324.893233,49.3828004 325.973952,47.2864672 327.328125,45.515625 C328.682298,43.7447828 330.257804,42.3515676 332.054688,41.3359375 C333.851571,40.3203074 335.739573,39.8125 337.71875,39.8125 C339.645843,39.8125 341.286452,40.5025973 342.640625,41.8828125 C343.994798,43.2630277 344.671875,45.2291539 344.671875,47.78125 C344.671875,49.447925 344.307295,51.1015543 343.578125,52.7421875 C342.848955,54.3828207 341.898443,55.8411395 340.726562,57.1171875 C339.554682,58.3932355 338.265632,59.4218711 336.859375,60.203125 C335.453118,60.9843789 334.098965,61.375 332.796875,61.375 C331.963538,61.375 331.26042,61.2708344 330.6875,61.0625 C330.11458,60.8541656 329.593752,60.5416687 329.125,60.125 C329.281251,63.0937648 329.932286,65.1640566 331.078125,66.3359375 C332.223964,67.5078184 333.708324,68.09375 335.53125,68.09375 C336.781256,68.09375 337.888016,67.8333359 338.851562,67.3125 C339.815109,66.7916641 340.635413,66.1927117 341.3125,65.515625 C341.989587,64.8385383 342.536456,64.148441 342.953125,63.4453125 C343.369794,62.742184 343.656249,62.2083352 343.8125,61.84375 C343.968751,61.5312484 344.242186,61.375 344.632812,61.375 C345.023439,61.375 345.21875,61.6874969 345.21875,62.3125 C345.21875,62.8854195 345.023439,63.7578066 344.632812,64.9296875 C344.242186,66.1015684 343.604171,67.2734316 342.71875,68.4453125 C341.833329,69.6171934 340.700528,70.6458289 339.320312,71.53125 C337.940097,72.4166711 336.260427,72.859375 334.28125,72.859375 Z M337.875,43.171875 C337.562498,43.171875 336.976567,43.4973926 336.117188,44.1484375 C335.257808,44.7994824 334.346359,45.7499938 333.382812,47 C332.419266,48.2500062 331.533858,49.7473871 330.726562,51.4921875 C329.919267,53.2369879 329.411459,55.2031141 329.203125,57.390625 C332.328141,56.6614547 334.802074,55.5156328 336.625,53.953125 C338.447926,52.3906172 339.359375,50.0989734 339.359375,47.078125 C339.359375,45.5677008 339.177085,44.5390652 338.8125,43.9921875 C338.447915,43.4453098 338.135418,43.171875 337.875,43.171875 Z M360.21875,72.859375 C356.572898,72.859375 353.760427,71.6354289 351.78125,69.1875 C349.802073,66.7395711 348.8125,63.5364781 348.8125,59.578125 C348.8125,56.8176945 349.216142,54.2265746 350.023438,51.8046875 C350.830733,49.3828004 351.911452,47.2864672 353.265625,45.515625 C354.619798,43.7447828 356.195304,42.3515676 357.992188,41.3359375 C359.789071,40.3203074 361.677073,39.8125 363.65625,39.8125 C365.583343,39.8125 367.223952,40.5025973 368.578125,41.8828125 C369.932298,43.2630277 370.609375,45.2291539 370.609375,47.78125 C370.609375,49.447925 370.244795,51.1015543 369.515625,52.7421875 C368.786455,54.3828207 367.835943,55.8411395 366.664062,57.1171875 C365.492182,58.3932355 364.203132,59.4218711 362.796875,60.203125 C361.390618,60.9843789 360.036465,61.375 358.734375,61.375 C357.901038,61.375 357.19792,61.2708344 356.625,61.0625 C356.05208,60.8541656 355.531252,60.5416687 355.0625,60.125 C355.218751,63.0937648 355.869786,65.1640566 357.015625,66.3359375 C358.161464,67.5078184 359.645824,68.09375 361.46875,68.09375 C362.718756,68.09375 363.825516,67.8333359 364.789062,67.3125 C365.752609,66.7916641 366.572913,66.1927117 367.25,65.515625 C367.927087,64.8385383 368.473956,64.148441 368.890625,63.4453125 C369.307294,62.742184 369.593749,62.2083352 369.75,61.84375 C369.906251,61.5312484 370.179686,61.375 370.570312,61.375 C370.960939,61.375 371.15625,61.6874969 371.15625,62.3125 C371.15625,62.8854195 370.960939,63.7578066 370.570312,64.9296875 C370.179686,66.1015684 369.541671,67.2734316 368.65625,68.4453125 C367.770829,69.6171934 366.638028,70.6458289 365.257812,71.53125 C363.877597,72.4166711 362.197927,72.859375 360.21875,72.859375 Z M363.8125,43.171875 C363.499998,43.171875 362.914067,43.4973926 362.054688,44.1484375 C361.195308,44.7994824 360.283859,45.7499938 359.320312,47 C358.356766,48.2500062 357.471358,49.7473871 356.664062,51.4921875 C355.856767,53.2369879 355.348959,55.2031141 355.140625,57.390625 C358.265641,56.6614547 360.739574,55.5156328 362.5625,53.953125 C364.385426,52.3906172 365.296875,50.0989734 365.296875,47.078125 C365.296875,45.5677008 365.114585,44.5390652 364.75,43.9921875 C364.385415,43.4453098 364.072918,43.171875 363.8125,43.171875 Z M390.921875,41.0625 C392.380216,41.0625 393.734369,41.4791625 394.984375,42.3125 C396.234381,43.1458375 397.302079,44.2395766 398.1875,45.59375 C399.072921,46.9479234 399.776039,48.4973871 400.296875,50.2421875 C400.817711,51.9869879 401.078125,53.7968656 401.078125,55.671875 C401.078125,57.5468844 400.869794,59.5260313 400.453125,61.609375 C400.036456,63.6927187 399.385421,65.6197828 398.5,67.390625 C397.614579,69.1614672 396.468757,70.6328066 395.0625,71.8046875 C393.656243,72.9765684 391.93751,73.5625 389.90625,73.5625 C388.291659,73.5625 386.768236,72.9765684 385.335938,71.8046875 C383.903639,70.6328066 382.796879,69.1614672 382.015625,67.390625 C381.911458,69.2135508 381.677085,71.0755113 381.3125,72.9765625 C380.947915,74.8776137 380.765625,77.1562367 380.765625,79.8125 C380.765625,80.5937539 380.791666,81.4791617 380.84375,82.46875 C380.895834,83.4583383 380.973958,84.4479117 381.078125,85.4375 C381.182292,86.4270883 381.338541,87.3385375 381.546875,88.171875 C381.755209,89.0052125 381.989582,89.6562477 382.25,90.125 C381.364579,90.6458359 380.570316,91.036457 379.867188,91.296875 C379.164059,91.557293 378.552086,91.7395828 378.03125,91.84375 C377.45833,92.0000008 376.911461,92.078125 376.390625,92.078125 C375.713538,92.078125 375.270834,91.7916695 375.0625,91.21875 C374.854166,90.6458305 374.75,89.6302156 374.75,88.171875 C374.75,87.2343703 374.789062,85.8932379 374.867188,84.1484375 C374.945313,82.4036371 375.049479,80.4114695 375.179688,78.171875 C375.309896,75.9322805 375.440104,73.5755332 375.570312,71.1015625 C375.700521,68.6275918 375.830729,66.1927203 375.960938,63.796875 C376.091146,61.4010297 376.195312,59.1744895 376.273438,57.1171875 C376.351563,55.0598855 376.390625,53.328132 376.390625,51.921875 C376.390625,50.2031164 376.364584,48.861984 376.3125,47.8984375 C376.260416,46.934891 376.195313,46.2057316 376.117188,45.7109375 C376.039062,45.2161434 375.947917,44.8645844 375.84375,44.65625 C375.739583,44.4479156 375.609376,44.213543 375.453125,43.953125 C375.921877,43.5885398 376.481768,43.2630223 377.132812,42.9765625 C377.783857,42.6901027 378.434893,42.4817715 379.085938,42.3515625 C379.736982,42.2213535 380.335935,42.1822914 380.882812,42.234375 C381.42969,42.2864586 381.859373,42.4166656 382.171875,42.625 C382.432293,42.885418 382.627604,43.2760391 382.757812,43.796875 C382.888021,44.3177109 383.005208,45.0989531 383.109375,46.140625 C384.098963,44.7864516 385.231764,43.6015676 386.507812,42.5859375 C387.783861,41.5703074 389.2552,41.0625 390.921875,41.0625 Z M387.875,68.953125 C388.812505,68.953125 389.710933,68.5104211 390.570312,67.625 C391.429692,66.7395789 392.184893,65.6067777 392.835938,64.2265625 C393.486982,62.8463473 394.007811,61.3099043 394.398438,59.6171875 C394.789064,57.9244707 394.984375,56.2448 394.984375,54.578125 C394.984375,52.7551992 394.815106,51.2578184 394.476562,50.0859375 C394.138019,48.9140566 393.721357,47.976566 393.226562,47.2734375 C392.731768,46.570309 392.21094,46.0755223 391.664062,45.7890625 C391.117185,45.5026027 390.635419,45.359375 390.21875,45.359375 C389.229162,45.359375 388.291671,45.7630168 387.40625,46.5703125 C386.520829,47.3776082 385.739587,48.4192645 385.0625,49.6953125 C384.385413,50.9713605 383.851564,52.3906172 383.460938,53.953125 C383.070311,55.5156328 382.875,57.0781172 382.875,58.640625 C382.875,60.0989656 383.018228,61.4531188 383.304688,62.703125 C383.591147,63.9531312 383.968748,65.0468703 384.4375,65.984375 C384.906252,66.9218797 385.440101,67.6510391 386.039062,68.171875 C386.638024,68.6927109 387.249997,68.953125 387.875,68.953125 Z M409.984375,63.875 C410.973963,63.875 411.794268,64.1614555 412.445312,64.734375 C413.096357,65.3072945 413.421875,66.1145781 413.421875,67.15625 C413.421875,67.7812531 413.304689,68.4322883 413.070312,69.109375 C412.835936,69.7864617 412.445315,70.4244762 411.898438,71.0234375 C411.35156,71.6223988 410.648442,72.1171855 409.789062,72.5078125 C408.929683,72.8984395 407.901048,73.09375 406.703125,73.09375 C405.661453,73.09375 404.86719,72.7812531 404.320312,72.15625 C403.773435,71.5312469 403.5,70.7500047 403.5,69.8125 C403.5,68.2499922 404.124994,66.8697977 405.375,65.671875 C406.625006,64.4739523 408.161449,63.875 409.984375,63.875 Z M417.171875,44.34375 C417.171875,44.0312484 417.588537,43.6927102 418.421875,43.328125 C419.255212,42.9635398 420.179682,42.6640637 421.195312,42.4296875 C422.210943,42.1953113 423.148433,42.0651043 424.007812,42.0390625 C424.867192,42.0130207 425.296875,42.2083313 425.296875,42.625 C425.296875,43.4062539 425.244792,44.5130137 425.140625,45.9453125 C425.036458,47.3776113 424.906251,48.8880129 424.75,50.4765625 L424.28125,55.2421875 C424.124999,56.8307371 424.020834,58.1718695 423.96875,59.265625 C423.864583,60.4114641 423.760417,61.6614516 423.65625,63.015625 C423.552083,64.1614641 423.473959,65.437493 423.421875,66.84375 C423.369791,68.250007 423.369791,69.6822844 423.421875,71.140625 C423.421875,71.401043 423.161461,71.661457 422.640625,71.921875 C422.119789,72.182293 421.546878,72.3776035 420.921875,72.5078125 C420.296872,72.6380215 419.69792,72.703125 419.125,72.703125 C418.55208,72.703125 418.239584,72.5989594 418.1875,72.390625 C418.083333,72.1822906 417.979167,71.8177109 417.875,71.296875 C417.770833,70.7760391 417.666667,70.033859 417.5625,69.0703125 C417.458333,68.106766 417.380209,66.8567785 417.328125,65.3203125 C417.276041,63.7838465 417.302083,61.9218859 417.40625,59.734375 C417.614584,55.4114367 417.640626,52.065116 417.484375,49.6953125 C417.328124,47.325509 417.223959,45.5416727 417.171875,44.34375 Z M422.640625,28.796875 C423.682297,28.796875 424.67187,29.1093719 425.609375,29.734375 C426.54688,30.3593781 427.015625,31.1927031 427.015625,32.234375 C427.015625,33.0156289 426.820314,33.7708297 426.429688,34.5 C426.039061,35.2291703 425.557295,35.8802055 424.984375,36.453125 C424.411455,37.0260445 423.76042,37.4817691 423.03125,37.8203125 C422.30208,38.1588559 421.625003,38.328125 421,38.328125 C420.166663,38.328125 419.489586,38.1848973 418.96875,37.8984375 C418.447914,37.6119777 418.044272,37.2734395 417.757812,36.8828125 C417.471353,36.4921855 417.276042,36.0625023 417.171875,35.59375 C417.067708,35.1249977 417.015625,34.6822937 417.015625,34.265625 C417.015625,33.7447891 417.093749,33.1588574 417.25,32.5078125 C417.406251,31.8567676 417.692706,31.2578152 418.109375,30.7109375 C418.526044,30.1640598 419.098955,29.7083352 419.828125,29.34375 C420.557295,28.9791648 421.494786,28.796875 422.640625,28.796875 Z M420.6875,36.0625 C421.000002,36.0625 421.351561,35.9453137 421.742188,35.7109375 C422.132814,35.4765613 422.497394,35.2031266 422.835938,34.890625 C423.174481,34.5781234 423.460936,34.2395852 423.695312,33.875 C423.929689,33.5104148 424.046875,33.197918 424.046875,32.9375 C424.046875,32.5208313 423.838544,32.3125 423.421875,32.3125 C423.161457,32.3125 422.835939,32.4166656 422.445312,32.625 C422.054686,32.8333344 421.677085,33.0807277 421.3125,33.3671875 C420.947915,33.6536473 420.648439,33.9661441 420.414062,34.3046875 C420.179686,34.6432309 420.0625,34.9687484 420.0625,35.28125 C420.0625,35.8020859 420.270831,36.0625 420.6875,36.0625 Z M452.25,58.5625 C452.145833,60.5937602 451.794274,62.4687414 451.195312,64.1875 C450.596351,65.9062586 449.776047,67.4036395 448.734375,68.6796875 C447.692703,69.9557355 446.455736,70.9583297 445.023438,71.6875 C443.591139,72.4166703 442.015634,72.8072914 440.296875,72.859375 C438.786451,72.9114586 437.367194,72.5468789 436.039062,71.765625 C434.710931,70.9843711 433.552088,69.890632 432.5625,68.484375 C431.572912,67.078118 430.830732,65.3984473 430.335938,63.4453125 C429.841143,61.4921777 429.697916,59.3698031 429.90625,57.078125 C430.062501,54.4218617 430.557288,52.1432387 431.390625,50.2421875 C432.223962,48.3411363 433.10937,46.7656312 434.046875,45.515625 C434.98438,44.2656188 435.856767,43.3411488 436.664062,42.7421875 C437.471358,42.1432262 437.979166,41.7916672 438.1875,41.6875 C438.552085,41.5312492 438.890623,41.4921871 439.203125,41.5703125 C439.515627,41.6484379 439.854165,41.7395828 440.21875,41.84375 C440.322917,41.8958336 440.427083,42.0260406 440.53125,42.234375 C440.739584,42.5989602 440.869791,43.2760367 440.921875,44.265625 C441.182293,43.6927055 441.520831,43.2239602 441.9375,42.859375 C442.354169,42.4947898 442.770831,42.2343758 443.1875,42.078125 C443.708336,41.8697906 444.229164,41.7395836 444.75,41.6875 C445.114585,41.6354164 445.7526,41.9218719 446.664062,42.546875 C447.575525,43.1718781 448.460933,44.1614516 449.320312,45.515625 C450.179692,46.8697984 450.921872,48.6275934 451.546875,50.7890625 C452.171878,52.9505316 452.406251,55.5416516 452.25,58.5625 Z M446.9375,57.625 C446.989584,56.3749938 446.950521,55.1119855 446.820312,53.8359375 C446.690104,52.5598895 446.481772,51.3880262 446.195312,50.3203125 C445.908853,49.2525988 445.557294,48.3932324 445.140625,47.7421875 C444.723956,47.0911426 444.307294,46.765625 443.890625,46.765625 C443.421873,46.8697922 442.901045,47.1041648 442.328125,47.46875 C441.859373,47.7812516 441.338545,48.2760383 440.765625,48.953125 C440.192705,49.6302117 439.645836,50.5937438 439.125,51.84375 C439.072916,51.6874992 439.020834,51.4010437 438.96875,50.984375 C438.916666,50.6197898 438.877604,50.1380238 438.851562,49.5390625 C438.825521,48.9401012 438.864583,48.1197969 438.96875,47.078125 C438.23958,47.9635461 437.679689,49.0052023 437.289062,50.203125 C436.898436,51.4010477 436.598959,52.5468695 436.390625,53.640625 C436.182291,54.9427148 436.026042,56.2447852 435.921875,57.546875 C435.869791,58.953132 435.934895,60.3333266 436.117188,61.6875 C436.29948,63.0416734 436.611977,64.2395781 437.054688,65.28125 C437.497398,66.3229219 438.031247,67.1562469 438.65625,67.78125 C439.281253,68.4062531 440.036454,68.6927086 440.921875,68.640625 C441.807296,68.5885414 442.588538,68.2239617 443.265625,67.546875 C443.942712,66.8697883 444.541664,66.0104219 445.0625,64.96875 C445.583336,63.9270781 445.999998,62.7552148 446.3125,61.453125 C446.625002,60.1510352 446.833333,58.8750062 446.9375,57.625 Z" id="sleepsheep.io" fill="#FFFFFF"></path>
            </g>
        </g>
    </g>
</svg>